<?xml version="1.0" encoding="UTF-8"?>
<!DOCTYPE svg PUBLIC "-//W3C//DTD SVG 1.1//EN" "http://www.w3.org/Graphics/SVG/1.1/DTD/svg11.dtd">
<!-- Creator: CorelDRAW -->
<svg xmlns="http://www.w3.org/2000/svg" xml:space="preserve" width="210mm" height="297mm" version="1.1" style="shape-rendering:geometricPrecision; text-rendering:geometricPrecision; image-rendering:optimizeQuality; fill-rule:evenodd; clip-rule:evenodd"
viewBox="0 0 21000 29700"
 xmlns:xlink="http://www.w3.org/1999/xlink"
 xmlns:xodm="http://www.corel.com/coreldraw/odm/2003">
 <defs>
  <style type="text/css">
   <![CDATA[
    .str0 {stroke:#FEFEFE;stroke-width:35.28;stroke-miterlimit:2.61313}
    .fil2 {fill:none}
    .fil1 {fill:#FEFEFE}
    .fil0 {fill:url(#id7)}
   ]]>
  </style>
   <clipPath id="id0">
    <path d="M6862.14 8357.25l5905.17 0c222.73,0 404.93,182.21 404.93,404.93l0 5905.22c0,222.72 -182.2,404.93 -404.93,404.93l-5905.17 0c-222.73,0 -404.94,-182.21 -404.94,-404.93l0 -5905.22c0,-222.72 182.21,-404.93 404.94,-404.93z"/>
   </clipPath>
      <mask id="id1">
  <radialGradient id="id2" gradientUnits="userSpaceOnUse" cx="4939.25" cy="5831.01" r="0" fx="4939.25" fy="5831.01">
   <stop offset="0" style="stop-opacity:1; stop-color:white"/>
   <stop offset="1" style="stop-opacity:0; stop-color:white"/>
  </radialGradient>
       <rect style="fill:url(#id2)" x="4935.44" y="5827.2" width="9767.94" height="9767.91"/>
      </mask>
      <mask id="id3">
  <radialGradient id="id4" gradientUnits="userSpaceOnUse" cx="4939.25" cy="5831.01" r="0" fx="4939.25" fy="5831.01">
   <stop offset="0" style="stop-opacity:1; stop-color:white"/>
   <stop offset="0.701961" style="stop-opacity:0.501961; stop-color:white"/>
   <stop offset="1" style="stop-opacity:0; stop-color:white"/>
  </radialGradient>
       <rect style="fill:url(#id4)" x="4935.44" y="5827.2" width="9767.94" height="9767.91"/>
      </mask>
    <clipPath id="id5">
     <path d="M7625.24 11072.86l2367.05 -1858.37 2367.06 2534.14 0 3209.71 -4734.11 0 0 -2871.92 0 -1013.56z"/>
    </clipPath>
    <clipPath id="id6">
     <path d="M6862.14 8357.25l5905.17 0c222.73,0 404.93,182.21 404.93,404.93l0 5905.22c0,222.72 -182.2,404.93 -404.93,404.93l-5905.17 0c-222.73,0 -404.94,-182.21 -404.94,-404.93l0 -5905.22c0,-222.72 182.21,-404.93 404.94,-404.93z"/>
    </clipPath>
  <radialGradient id="id7" gradientUnits="userSpaceOnUse" gradientTransform="matrix(1.64001 -1.11022E-16 4.75177E-16 1.64001 -6281 -7498)" cx="9814.72" cy="11714.79" r="3357.54" fx="9814.72" fy="11714.79">
   <stop offset="0" style="stop-opacity:1; stop-color:#FFF8AF"/>
   <stop offset="0.509804" style="stop-opacity:1; stop-color:#FFCC29"/>
   <stop offset="0.698039" style="stop-opacity:1; stop-color:#FAA92F"/>
   <stop offset="1" style="stop-opacity:1; stop-color:#F58634"/>
  </radialGradient>
 </defs>
 <g id="Layer_x0020_1">
  <metadata id="CorelCorpID_0Corel-Layer"/>
  <path class="fil0" d="M6862.14 8357.25l5905.17 0c222.73,0 404.93,182.21 404.93,404.93l0 5905.22c0,222.72 -182.2,404.93 -404.93,404.93l-5905.17 0c-222.73,0 -404.94,-182.21 -404.94,-404.93l0 -5905.22c0,-222.72 182.21,-404.93 404.94,-404.93z"/>
  <g style="clip-path:url(#id0)">
   <g id="_2386054199008">
    <g>
     <path id="_1" class="fil1" style="mask:url(#id1)" d="M9816.37 10713.2l262.7 4878.1 -525.4 0 262.7 -4878.1zm0.64 0.71l1516.29 4643.91 -507.49 135.98 -1008.8 -4779.89zm0.79 0.53l2666.56 4093.22 -455 262.7 -2211.56 -4355.92zm0.9 0.31l3635.11 3263.59 -371.51 371.51 -3263.6 -3635.1zm0.96 0.06l4355.92 2211.56 -262.7 455 -4093.22 -2666.56zm0.94 -0.19l4779.89 1008.81 -135.98 507.49 -4643.91 -1516.3zm0.85 -0.42l4878.12 -262.69 0 525.39 -4878.12 -262.7zm0.72 -0.64l4643.91 -1516.28 135.98 507.49 -4779.89 1008.79zm0.53 -0.79l4093.23 -2666.55 262.69 455 -4355.92 2211.55zm0.3 -0.9l3263.61 -3635.1 371.5 371.51 -3635.11 3263.59zm0.07 -0.96l2211.56 -4355.91 455 262.7 -2666.56 4093.21zm-0.19 -0.94l1008.81 -4779.87 507.49 135.98 -1516.3 4643.89zm-0.43 -0.85l-262.69 -4878.11 525.39 0 -262.7 4878.11zm-0.63 -0.72l-1516.29 -4643.9 507.49 -135.98 1008.8 4779.88zm-0.79 -0.53l-2666.56 -4093.22 455 -262.69 2211.56 4355.91zm-0.91 -0.3l-3635.1 -3263.6 371.51 -371.5 3263.59 3635.1zm-0.95 -0.07l-4355.92 -2211.55 262.69 -455 4093.23 2666.55zm-0.94 0.19l-4779.89 -1008.81 135.98 -507.48 4643.91 1516.29zm-0.86 0.43l-4878.12 262.69 0 -525.39 4878.12 262.7zm-0.71 0.63l-4643.92 1516.28 -135.98 -507.48 4779.9 -1008.8zm-0.53 0.79l-4093.23 2666.55 -262.7 -454.99 4355.93 -2211.56zm-0.31 0.91l-3263.6 3635.09 -371.5 -371.5 3635.1 -3263.59zm-0.06 0.95l-2211.56 4355.91 -455 -262.69 2666.56 -4093.22zm0.19 0.94l-1008.81 4779.88 -507.49 -135.98 1516.3 -4643.9z"/>
     <path class="fil1" style="mask:url(#id3)" d="M9816.37 10713.2l262.7 4878.1 -525.4 0 262.7 -4878.1zm0.64 0.71l1516.29 4643.91 -507.49 135.98 -1008.8 -4779.89zm0.79 0.53l2666.56 4093.22 -455 262.7 -2211.56 -4355.92zm0.9 0.31l3635.11 3263.59 -371.51 371.51 -3263.6 -3635.1zm0.96 0.06l4355.92 2211.56 -262.7 455 -4093.22 -2666.56zm0.94 -0.19l4779.89 1008.81 -135.98 507.49 -4643.91 -1516.3zm0.85 -0.42l4878.12 -262.69 0 525.39 -4878.12 -262.7zm0.72 -0.64l4643.91 -1516.28 135.98 507.49 -4779.89 1008.79zm0.53 -0.79l4093.23 -2666.55 262.69 455 -4355.92 2211.55zm0.3 -0.9l3263.61 -3635.1 371.5 371.51 -3635.11 3263.59zm0.07 -0.96l2211.56 -4355.91 455 262.7 -2666.56 4093.21zm-0.19 -0.94l1008.81 -4779.87 507.49 135.98 -1516.3 4643.89zm-0.43 -0.85l-262.69 -4878.11 525.39 0 -262.7 4878.11zm-0.63 -0.72l-1516.29 -4643.9 507.49 -135.98 1008.8 4779.88zm-0.79 -0.53l-2666.56 -4093.22 455 -262.69 2211.56 4355.91zm-0.91 -0.3l-3635.1 -3263.6 371.51 -371.5 3263.59 3635.1zm-0.95 -0.07l-4355.92 -2211.55 262.69 -455 4093.23 2666.55zm-0.94 0.19l-4779.89 -1008.81 135.98 -507.48 4643.91 1516.29zm-0.86 0.43l-4878.12 262.69 0 -525.39 4878.12 262.7zm-0.71 0.63l-4643.92 1516.28 -135.98 -507.48 4779.9 -1008.8zm-0.53 0.79l-4093.23 2666.55 -262.7 -454.99 4355.93 -2211.56zm-0.31 0.91l-3263.6 3635.09 -371.5 -371.5 3635.1 -3263.59zm-0.06 0.95l-2211.56 4355.91 -455 -262.69 2666.56 -4093.22zm0.19 0.94l-1008.81 4779.88 -507.49 -135.98 1516.3 -4643.9z"/>
    </g>
   </g>
   <g style="clip-path:url(#id5)">
    <image x="7625.24" y="9214.49" width="4734.11" height="5743.85" xlink:href="logo_Images\logo_ImgID1.png"/>
   </g>
   <g style="clip-path:url(#id6)">
   </g>
  </g>
  <path class="fil2 str0" d="M6862.14 8357.25l5905.17 0c222.73,0 404.93,182.21 404.93,404.93l0 5905.22c0,222.72 -182.2,404.93 -404.93,404.93l-5905.17 0c-222.73,0 -404.94,-182.21 -404.94,-404.93l0 -5905.22c0,-222.72 182.21,-404.93 404.94,-404.93z"/>
 </g>
</svg>
